{
    "asset" : {
        "generator" : "Khronos glTF Blender I/O v1.8.19",
        "version" : "2.0"
    },
    "scene" : 0,
    "scenes" : [
        {
            "name" : "Scene",
            "nodes" : [
                0
            ]
        }
    ],
    "nodes" : [
        {
            "mesh" : 0,
            "name" : "Sphere.002",
            "rotation" : [
                0,
                0.668964684009552,
                0,
                0.7432941198348999
            ],
            "scale" : [
                2.1015594005584717,
                2.1015594005584717,
                2.1015594005584717
            ],
            "translation" : [
                6.552765846252441,
                1.9646763801574707,
                3.1085104942321777
            ]
        }
    ],
    "materials" : [
        {
            "alphaMode" : "BLEND",
            "doubleSided" : true,
            "name" : "Material.001",
            "pbrMetallicRoughness" : {
                "baseColorFactor" : [
                    0.5271153450012207,
                    0.4341537058353424,
                    0.30946895480155945,
                    0.3622047007083893
                ],
                "metallicFactor" : 0,
                "roughnessFactor" : 0.36614173650741577
            }
        },
        {
            "doubleSided" : true,
            "name" : "Material.005",
            "pbrMetallicRoughness" : {
                "baseColorFactor" : [
                    0.38437315821647644,
                    0.08665653318166733,
                    0,
                    1
                ],
                "metallicFactor" : 0,
                "roughnessFactor" : 0.12204724550247192
            }
        }
    ],
    "meshes" : [
        {
            "name" : "Sphere.001",
            "primitives" : [
                {
                    "attributes" : {
                        "POSITION" : 0,
                        "NORMAL" : 1,
                        "TEXCOORD_0" : 2
                    },
                    "indices" : 3,
                    "material" : 0
                },
                {
                    "attributes" : {
                        "POSITION" : 4,
                        "NORMAL" : 5,
                        "TEXCOORD_0" : 6
                    },
                    "indices" : 7,
                    "material" : 1
                }
            ]
        }
    ],
    "accessors" : [
        {
            "bufferView" : 0,
            "componentType" : 5126,
            "count" : 1473,
            "max" : [
                2.759134292602539,
                0.40552419424057007,
                1.6278749704360962
            ],
            "min" : [
                -2.370398998260498,
                -0.38816410303115845,
                -6.628268718719482
            ],
            "type" : "VEC3"
        },
        {
            "bufferView" : 1,
            "componentType" : 5126,
            "count" : 1473,
            "type" : "VEC3"
        },
        {
            "bufferView" : 2,
            "componentType" : 5126,
            "count" : 1473,
            "type" : "VEC2"
        },
        {
            "bufferView" : 3,
            "componentType" : 5123,
            "count" : 5982,
            "type" : "SCALAR"
        },
        {
            "bufferView" : 4,
            "componentType" : 5126,
            "count" : 3988,
            "max" : [
                0.9394499063491821,
                0.008483827114105225,
                0.29031428694725037
            ],
            "min" : [
                -0.4608517587184906,
                -0.22663314640522003,
                -5.127851963043213
            ],
            "type" : "VEC3"
        },
        {
            "bufferView" : 5,
            "componentType" : 5126,
            "count" : 3988,
            "type" : "VEC3"
        },
        {
            "bufferView" : 6,
            "componentType" : 5126,
            "count" : 3988,
            "type" : "VEC2"
        },
        {
            "bufferView" : 7,
            "componentType" : 5123,
            "count" : 5760,
            "type" : "SCALAR"
        }
    ],
    "bufferViews" : [
        {
            "buffer" : 0,
            "byteLength" : 17676,
            "byteOffset" : 0
        },
        {
            "buffer" : 0,
            "byteLength" : 17676,
            "byteOffset" : 17676
        },
        {
            "buffer" : 0,
            "byteLength" : 11784,
            "byteOffset" : 35352
        },
        {
            "buffer" : 0,
            "byteLength" : 11964,
            "byteOffset" : 47136
        },
        {
            "buffer" : 0,
            "byteLength" : 47856,
            "byteOffset" : 59100
        },
        {
            "buffer" : 0,
            "byteLength" : 47856,
            "byteOffset" : 106956
        },
        {
            "buffer" : 0,
            "byteLength" : 31904,
            "byteOffset" : 154812
        },
        {
            "buffer" : 0,
            "byteLength" : 11520,
            "byteOffset" : 186716
        }
    ],
    "buffers" : [
        {
            "byteLength" : 198236,
            "uri" : "data:application/octet-stream;base64,"
        }
    ]
}
