{
    "asset" : {
        "generator" : "Khronos glTF Blender I/O v1.8.19",
        "version" : "2.0"
    },
    "scene" : 0,
    "scenes" : [
        {
            "name" : "Scene",
            "nodes" : [
                1,
                3
            ]
        }
    ],
    "nodes" : [
        {
            "mesh" : 0,
            "name" : "Sphere.001",
            "rotation" : [
                -0.02260817028582096,
                0.9904426336288452,
                -0.013741047121584415,
                0.13536439836025238
            ],
            "scale" : [
                0.2753121554851532,
                0.0923108160495758,
                0.4396507740020752
            ],
            "translation" : [
                0.3260248601436615,
                0.026333332061767578,
                -0.05691808462142944
            ]
        },
        {
            "children" : [
                0
            ],
            "mesh" : 1,
            "name" : "Sphere",
            "rotation" : [
                0,
                0.9028604626655579,
                0,
                0.42993366718292236
            ],
            "scale" : [
                2.1015594005584717,
                2.1015594005584717,
                2.1015594005584717
            ],
            "translation" : [
                -0.5205326080322266,
                2.3843328952789307,
                1.958580493927002
            ]
        },
        {
            "mesh" : 2,
            "name" : "Sphere.003",
            "rotation" : [
                0.009808923117816448,
                0.03046046942472458,
                -0.02457093633711338,
                0.9991858005523682
            ],
            "scale" : [
                0.2753121852874756,
                0.0923108160495758,
                0.4396507441997528
            ],
            "translation" : [
                -0.28957223892211914,
                0.026333332061767578,
                0.1602494716644287
            ]
        },
        {
            "children" : [
                2
            ],
            "mesh" : 3,
            "name" : "Sphere.002",
            "rotation" : [
                0,
                -0.5734609365463257,
                0,
                0.8192328810691833
            ],
            "scale" : [
                2.1015594005584717,
                2.1015594005584717,
                2.1015594005584717
            ],
            "translation" : [
                0.5561783313751221,
                1.8577876091003418,
                -10.001914024353027
            ]
        }
    ],
    "materials" : [
        {
            "doubleSided" : true,
            "name" : "Material.005",
            "pbrMetallicRoughness" : {
                "baseColorFactor" : [
                    0.38437315821647644,
                    0.08665653318166733,
                    0,
                    1
                ],
                "metallicFactor" : 0,
                "roughnessFactor" : 0.12204724550247192
            }
        },
        {
            "alphaMode" : "BLEND",
            "doubleSided" : true,
            "name" : "Material.001",
            "pbrMetallicRoughness" : {
                "baseColorFactor" : [
                    0.5271153450012207,
                    0.4341537058353424,
                    0.30946895480155945,
                    0.3622047007083893
                ],
                "metallicFactor" : 0,
                "roughnessFactor" : 0.36614173650741577
            }
        }
    ],
    "meshes" : [
        {
            "name" : "Sphere",
            "primitives" : [
                {
                    "attributes" : {
                        "POSITION" : 0,
                        "NORMAL" : 1,
                        "TEXCOORD_0" : 2
                    },
                    "indices" : 3,
                    "material" : 0
                }
            ]
        },
        {
            "name" : "Sphere.002",
            "primitives" : [
                {
                    "attributes" : {
                        "POSITION" : 4,
                        "NORMAL" : 5,
                        "TEXCOORD_0" : 6
                    },
                    "indices" : 7,
                    "material" : 1
                }
            ]
        },
        {
            "name" : "Sphere.003",
            "primitives" : [
                {
                    "attributes" : {
                        "POSITION" : 8,
                        "NORMAL" : 9,
                        "TEXCOORD_0" : 10
                    },
                    "indices" : 3,
                    "material" : 0
                }
            ]
        },
        {
            "name" : "Sphere.001",
            "primitives" : [
                {
                    "attributes" : {
                        "POSITION" : 11,
                        "NORMAL" : 12,
                        "TEXCOORD_0" : 13
                    },
                    "indices" : 7,
                    "material" : 1
                }
            ]
        }
    ],
    "accessors" : [
        {
            "bufferView" : 0,
            "componentType" : 5126,
            "count" : 1994,
            "max" : [
                1.423201322555542,
                1.1193345785140991,
                1.0176972150802612
            ],
            "min" : [
                -0.992891252040863,
                -1.4390288591384888,
                -1.0217657089233398
            ],
            "type" : "VEC3"
        },
        {
            "bufferView" : 1,
            "componentType" : 5126,
            "count" : 1994,
            "type" : "VEC3"
        },
        {
            "bufferView" : 2,
            "componentType" : 5126,
            "count" : 1994,
            "type" : "VEC2"
        },
        {
            "bufferView" : 3,
            "componentType" : 5123,
            "count" : 2880,
            "type" : "SCALAR"
        },
        {
            "bufferView" : 4,
            "componentType" : 5126,
            "count" : 1988,
            "max" : [
                1.8204869031906128,
                0.4312349259853363,
                1.7878501415252686
            ],
            "min" : [
                -2.5478053092956543,
                -0.3154277205467224,
                -2.4760165214538574
            ],
            "type" : "VEC3"
        },
        {
            "bufferView" : 5,
            "componentType" : 5126,
            "count" : 1988,
            "type" : "VEC3"
        },
        {
            "bufferView" : 6,
            "componentType" : 5126,
            "count" : 1988,
            "type" : "VEC2"
        },
        {
            "bufferView" : 7,
            "componentType" : 5123,
            "count" : 2880,
            "type" : "SCALAR"
        },
        {
            "bufferView" : 8,
            "componentType" : 5126,
            "count" : 1994,
            "max" : [
                1.423201322555542,
                1.1193345785140991,
                1.0176972150802612
            ],
            "min" : [
                -0.992891252040863,
                -1.4390288591384888,
                -1.0217657089233398
            ],
            "type" : "VEC3"
        },
        {
            "bufferView" : 9,
            "componentType" : 5126,
            "count" : 1994,
            "type" : "VEC3"
        },
        {
            "bufferView" : 10,
            "componentType" : 5126,
            "count" : 1994,
            "type" : "VEC2"
        },
        {
            "bufferView" : 11,
            "componentType" : 5126,
            "count" : 1988,
            "max" : [
                1.8204869031906128,
                0.434087336063385,
                1.7878501415252686
            ],
            "min" : [
                -2.5478053092956543,
                -0.3154277205467224,
                -1.8441849946975708
            ],
            "type" : "VEC3"
        },
        {
            "bufferView" : 12,
            "componentType" : 5126,
            "count" : 1988,
            "type" : "VEC3"
        },
        {
            "bufferView" : 13,
            "componentType" : 5126,
            "count" : 1988,
            "type" : "VEC2"
        }
    ],
    "bufferViews" : [
        {
            "buffer" : 0,
            "byteLength" : 23928,
            "byteOffset" : 0
        },
        {
            "buffer" : 0,
            "byteLength" : 23928,
            "byteOffset" : 23928
        },
        {
            "buffer" : 0,
            "byteLength" : 15952,
            "byteOffset" : 47856
        },
        {
            "buffer" : 0,
            "byteLength" : 5760,
            "byteOffset" : 63808
        },
        {
            "buffer" : 0,
            "byteLength" : 23856,
            "byteOffset" : 69568
        },
        {
            "buffer" : 0,
            "byteLength" : 23856,
            "byteOffset" : 93424
        },
        {
            "buffer" : 0,
            "byteLength" : 15904,
            "byteOffset" : 117280
        },
        {
            "buffer" : 0,
            "byteLength" : 5760,
            "byteOffset" : 133184
        },
        {
            "buffer" : 0,
            "byteLength" : 23928,
            "byteOffset" : 138944
        },
        {
            "buffer" : 0,
            "byteLength" : 23928,
            "byteOffset" : 162872
        },
        {
            "buffer" : 0,
            "byteLength" : 15952,
            "byteOffset" : 186800
        },
        {
            "buffer" : 0,
            "byteLength" : 23856,
            "byteOffset" : 202752
        },
        {
            "buffer" : 0,
            "byteLength" : 23856,
            "byteOffset" : 226608
        },
        {
            "buffer" : 0,
            "byteLength" : 15904,
            "byteOffset" : 250464
        }
    ],
    "buffers" : [
        {
            "byteLength" : 266368,
            "uri" : "data:application/octet-stream;base64,"
        }
    ]
}
