{
    "asset" : {
        "generator" : "Khronos glTF Blender I/O v1.8.19",
        "version" : "2.0"
    },
    "scene" : 0,
    "scenes" : [
        {
            "name" : "Scene",
            "nodes" : [
                0,
                1,
                2
            ]
        }
    ],
    "nodes" : [
        {
            "mesh" : 0,
            "name" : "Sphere.002",
            "rotation" : [
                0,
                0.7399400472640991,
                0,
                0.6726728081703186
            ],
            "scale" : [
                2.1015594005584717,
                2.1015594005584717,
                2.1015594005584717
            ],
            "translation" : [
                0.5561783313751221,
                1.8577876091003418,
                -5.1442108154296875
            ]
        },
        {
            "mesh" : 1,
            "name" : "Sphere.003",
            "rotation" : [
                0.026352055370807648,
                0.0023345379158854485,
                -0.08873350918292999,
                0.9957040548324585
            ],
            "scale" : [
                0.5785849094390869,
                0.19399666786193848,
                0.9239522218704224
            ],
            "translation" : [
                -0.2359001636505127,
                2.12638521194458,
                -2.5024189949035645
            ]
        },
        {
            "name" : "Empty",
            "rotation" : [
                0.27459949254989624,
                0.7010626792907715,
                -0.360813170671463,
                0.5503817796707153
            ],
            "translation" : [
                -6.018089771270752,
                5.325103282928467,
                3.457294464111328
            ]
        }
    ],
    "materials" : [
        {
            "alphaMode" : "BLEND",
            "doubleSided" : true,
            "name" : "Material.001",
            "pbrMetallicRoughness" : {
                "baseColorFactor" : [
                    0.5271153450012207,
                    0.4341537058353424,
                    0.30946895480155945,
                    0.3622047007083893
                ],
                "metallicFactor" : 0,
                "roughnessFactor" : 0.36614173650741577
            }
        },
        {
            "doubleSided" : true,
            "name" : "Material.005",
            "pbrMetallicRoughness" : {
                "baseColorFactor" : [
                    0.38437315821647644,
                    0.08665653318166733,
                    0,
                    1
                ],
                "metallicFactor" : 0,
                "roughnessFactor" : 0.12204724550247192
            }
        }
    ],
    "meshes" : [
        {
            "name" : "Sphere.001",
            "primitives" : [
                {
                    "attributes" : {
                        "POSITION" : 0,
                        "NORMAL" : 1,
                        "TEXCOORD_0" : 2
                    },
                    "indices" : 3,
                    "material" : 0
                }
            ]
        },
        {
            "name" : "Sphere.003",
            "primitives" : [
                {
                    "attributes" : {
                        "POSITION" : 4,
                        "NORMAL" : 5,
                        "TEXCOORD_0" : 6
                    },
                    "indices" : 7,
                    "material" : 1
                }
            ]
        }
    ],
    "accessors" : [
        {
            "bufferView" : 0,
            "componentType" : 5126,
            "count" : 1586,
            "max" : [
                1.8204869031906128,
                0.43123483657836914,
                1.7878499031066895
            ],
            "min" : [
                -4.522988319396973,
                -0.3154277503490448,
                -2.765184164047241
            ],
            "type" : "VEC3"
        },
        {
            "bufferView" : 1,
            "componentType" : 5126,
            "count" : 1586,
            "type" : "VEC3"
        },
        {
            "bufferView" : 2,
            "componentType" : 5126,
            "count" : 1586,
            "type" : "VEC2"
        },
        {
            "bufferView" : 3,
            "componentType" : 5123,
            "count" : 5886,
            "type" : "SCALAR"
        },
        {
            "bufferView" : 4,
            "componentType" : 5126,
            "count" : 1562,
            "max" : [
                1.423201560974121,
                1.1193349361419678,
                2.619873046875
            ],
            "min" : [
                -1.694288730621338,
                -2.2292470932006836,
                -1.0217666625976562
            ],
            "type" : "VEC3"
        },
        {
            "bufferView" : 5,
            "componentType" : 5126,
            "count" : 1562,
            "type" : "VEC3"
        },
        {
            "bufferView" : 6,
            "componentType" : 5126,
            "count" : 1562,
            "type" : "VEC2"
        },
        {
            "bufferView" : 7,
            "componentType" : 5123,
            "count" : 5952,
            "type" : "SCALAR"
        }
    ],
    "bufferViews" : [
        {
            "buffer" : 0,
            "byteLength" : 19032,
            "byteOffset" : 0
        },
        {
            "buffer" : 0,
            "byteLength" : 19032,
            "byteOffset" : 19032
        },
        {
            "buffer" : 0,
            "byteLength" : 12688,
            "byteOffset" : 38064
        },
        {
            "buffer" : 0,
            "byteLength" : 11772,
            "byteOffset" : 50752
        },
        {
            "buffer" : 0,
            "byteLength" : 18744,
            "byteOffset" : 62524
        },
        {
            "buffer" : 0,
            "byteLength" : 18744,
            "byteOffset" : 81268
        },
        {
            "buffer" : 0,
            "byteLength" : 12496,
            "byteOffset" : 100012
        },
        {
            "buffer" : 0,
            "byteLength" : 11904,
            "byteOffset" : 112508
        }
    ],
    "buffers" : [
        {
            "byteLength" : 124412,
            "uri" : "data:application/octet-stream;base64,"
        }
    ]
}
